# Blender v2.80 (sub 57) OBJ File: 'shelf.blend'
# www.blender.org
mtllib shelf.mtl
o Cube
v 0.150741 -0.000557 -0.421947
v -0.150741 -0.000557 -0.421947
v 0.150741 -0.000557 0.422003
v -0.150741 -0.000557 0.422003
v 0.150741 -0.000557 0.394852
v -0.150741 -0.000557 0.394852
v 0.150741 -0.000557 -0.388284
v -0.150741 -0.000557 -0.388284
v -0.150741 0.442497 0.422003
v 0.150741 0.442497 0.422003
v 0.150741 0.442497 -0.421947
v -0.150741 0.442497 -0.421947
v 0.150741 0.442497 -0.388284
v -0.150741 0.442497 0.394852
v 0.150741 0.442497 0.394852
v -0.150741 0.442497 -0.388284
v -0.150741 0.442497 0.422003
v 0.150741 0.442497 0.422003
v 0.150741 0.442497 -0.421947
v -0.150741 0.442497 -0.421947
v 0.150741 0.442497 -0.388284
v -0.150741 0.442497 0.394852
v 0.150741 0.442497 0.394852
v -0.150741 0.442497 -0.388284
v 0.150741 0.476605 0.394852
v -0.150741 0.476605 0.394852
v 0.150741 0.476605 -0.388284
v -0.150741 0.476605 -0.388284
v -0.150741 0.761339 0.422003
v 0.150741 0.761339 0.422003
v 0.150741 0.761339 -0.421947
v -0.150741 0.761339 -0.421947
v 0.150741 0.823979 -0.388284
v -0.150741 0.823979 0.394852
v 0.150741 0.823979 0.394852
v -0.150741 0.823979 -0.388284
v 0.150741 0.853735 0.394852
v -0.150741 0.853735 0.394852
v 0.150741 0.853735 -0.388284
v -0.150741 0.853735 -0.388284
v -0.150741 1.167799 0.422003
v 0.150741 1.167799 0.422003
v 0.150741 1.167799 -0.421947
v -0.150741 1.167799 -0.421947
v 0.150741 1.167799 -0.388284
v -0.150741 1.167799 0.394852
v 0.150741 1.167799 0.394852
v -0.150741 1.167799 -0.388284
v -0.150741 1.190945 0.415870
v 0.150741 1.190945 0.415870
v 0.150741 1.190945 -0.421947
v -0.150741 1.190945 -0.421947
v 0.150741 1.190945 -0.388284
v -0.150741 1.190945 0.394852
v 0.150741 1.190945 0.394852
v -0.150741 1.190945 -0.388284
v -0.150741 0.026513 -0.388284
v -0.150741 0.026513 0.394852
v 0.150741 0.026513 0.394852
v 0.150741 0.026513 -0.388284
v 0.150741 1.167799 0.394852
v -0.150741 1.167799 0.394852
v 0.150741 1.167799 -0.388284
v -0.150741 1.167799 -0.388284
vt 1.000000 0.088945
vt 0.000000 0.088945
vt 0.000000 0.088945
vt 1.000000 0.088945
vt 0.000000 0.000000
vt 0.000000 0.000000
vt 0.000000 0.000000
vt 0.000000 0.000000
vt 1.000000 0.088945
vt 0.000000 0.088945
vt 0.000000 0.088945
vt 1.000000 0.088945
vt 0.000000 0.906134
vt 1.000000 0.906134
vt 1.000000 0.906134
vt 0.000000 0.906134
vt 0.000000 0.000000
vt 0.000000 0.000000
vt 0.000000 0.000000
vt 0.000000 0.000000
vt 0.000000 0.000000
vt 0.000000 0.000000
vt 0.000000 0.000000
vt 0.000000 0.000000
vt 0.000000 0.000000
vt 0.000000 0.000000
vt 0.000000 0.906134
vt 1.000000 0.906134
vt 0.000000 0.000000
vt 0.000000 0.000000
vt 0.000000 0.906134
vt 1.000000 0.906134
vt 0.000000 0.000000
vt 0.000000 0.000000
vt 0.000000 0.000000
vt 0.000000 0.000000
vt 0.000000 0.000000
vt 0.000000 0.000000
vt 0.000000 0.000000
vt 0.000000 0.000000
vt 0.000000 0.000000
vt 0.000000 0.000000
vt 0.000000 0.000000
vt 0.000000 0.000000
vt 0.000000 0.088945
vt 1.000000 0.088945
vt 0.000000 0.000000
vt 0.000000 0.000000
vt 0.000000 0.000000
vt 0.000000 0.000000
vt 0.000000 0.906134
vt 1.000000 0.906134
vt 1.000000 0.906134
vt 0.000000 0.906134
vt 0.000000 0.000000
vt 0.000000 0.000000
vt 0.000000 0.088945
vt 1.000000 0.088945
vt 0.000000 0.000000
vt 0.000000 0.000000
vt 0.000000 0.000000
vt 0.000000 0.000000
vt 0.000000 0.906134
vt 1.000000 0.906134
vt 0.000000 0.088945
vt 1.000000 0.088945
vt 0.000000 0.000000
vt 0.000000 0.000000
vt 0.000000 0.000000
vt 0.000000 0.000000
vt 0.000000 0.000000
vt 0.000000 0.000000
vt 0.000000 0.000000
vt 0.000000 0.000000
vt 0.000000 0.000000
vt 0.000000 0.000000
vt 0.000000 0.000000
vt 0.000000 0.088945
vt 1.000000 0.088945
vt 0.000000 0.000000
vt 0.000000 0.000000
vt 0.000000 0.000000
vt 0.000000 0.000000
vt 0.000000 0.000000
vt 0.000000 0.906134
vt 1.000000 0.906134
vt 1.000000 1.000000
vt 0.000000 1.000000
vt 1.000000 0.000000
vt 1.000000 0.088945
vt 0.000000 0.088945
vt 0.000000 0.000000
vt 0.000000 0.000000
vt 1.000000 0.906134
vt 0.000000 0.906134
vt 0.000000 0.000000
vt 0.000000 0.000000
vt 0.000000 0.000000
vt 0.000000 0.000000
vt 0.000000 0.000000
vt 0.000000 0.000000
vt 0.000000 0.000000
vt 0.000000 0.000000
vn 0.0000 0.0000 -1.0000
vn -1.0000 0.0000 0.0000
vn 0.0000 0.0000 1.0000
vn 1.0000 0.0000 0.0000
vn 0.0000 1.0000 0.0000
vn 0.0000 0.2561 0.9666
vn 0.0000 -1.0000 0.0000
usemtl Material
s off
f 5/1/1 6/2/1 14/3/1 15/4/1
f 2/5/2 8/6/2 16/7/2 12/8/2
f 6/2/3 5/1/3 59/9/3 58/10/3
f 15/4/3 14/3/3 22/11/3 23/12/3
f 16/13/3 13/14/3 21/15/3 24/16/3
f 3/17/4 5/18/4 15/19/4 10/20/4
f 7/21/4 1/22/4 11/23/4 13/24/4
f 4/25/3 3/17/3 10/20/3 9/26/3
f 8/27/3 7/28/3 13/14/3 16/13/3
f 6/29/2 4/25/2 9/26/2 14/30/2
f 1/22/1 2/5/1 12/8/1 11/23/1
f 16/13/1 28/31/1 27/32/1 13/14/1
f 17/33/3 18/34/3 30/35/3 29/36/3
f 21/37/4 19/38/4 31/39/4 33/40/4
f 14/30/3 9/26/3 17/33/3 22/41/3
f 11/23/3 12/8/3 20/42/3 19/38/3
f 12/8/3 16/7/3 24/43/3 20/42/3
f 10/20/3 15/19/3 23/44/3 18/34/3
f 13/24/3 11/23/3 19/38/3 21/37/3
f 9/26/3 10/20/3 18/34/3 17/33/3
f 27/32/5 28/31/5 26/45/5 25/46/5
f 15/4/3 25/46/3 26/45/3 14/3/3
f 13/24/4 27/47/4 25/48/4 15/19/4
f 14/30/2 26/49/2 28/50/2 16/7/2
f 36/51/3 33/52/3 45/53/3 48/54/3
f 29/36/3 30/35/3 42/55/3 41/56/3
f 24/16/3 21/15/3 33/52/3 36/51/3
f 23/12/1 22/11/1 34/57/1 35/58/1
f 22/41/2 17/33/2 29/36/2 34/59/2
f 19/38/1 20/42/1 32/60/1 31/39/1
f 20/42/2 24/43/2 36/61/2 32/60/2
f 18/34/4 23/44/4 35/62/4 30/35/4
f 36/51/1 40/63/1 39/64/1 33/52/1
f 39/64/5 40/63/5 38/65/5 37/66/5
f 35/58/3 37/66/3 38/65/3 34/57/3
f 33/40/4 39/67/4 37/68/4 35/62/4
f 34/59/2 38/69/2 40/70/2 36/61/2
f 43/71/1 44/72/1 52/73/1 51/74/1
f 46/75/2 41/56/2 49/76/2 54/77/2
f 35/58/1 34/57/1 46/78/1 47/79/1
f 34/59/2 29/36/2 41/56/2 46/75/2
f 31/39/1 32/60/1 44/72/1 43/71/1
f 32/60/2 36/61/2 48/80/2 44/72/2
f 30/35/4 35/62/4 47/81/4 42/55/4
f 33/40/4 31/39/4 43/71/4 45/82/4
f 45/82/4 53/83/4 55/84/4 47/81/4
f 56/85/5 53/86/5 51/87/5 52/88/5
f 49/76/5 50/89/5 55/90/5 54/91/5
f 53/86/5 56/85/5 54/91/5 55/90/5
f 46/75/2 54/77/2 56/92/2 48/80/2
f 44/72/2 48/80/2 56/92/2 52/73/2
f 42/55/4 47/81/4 55/84/4 50/93/4
f 45/82/4 43/71/4 51/74/4 53/83/4
f 41/56/6 42/55/6 50/93/6 49/76/6
f 58/10/5 59/9/5 60/94/5 57/95/5
f 7/28/1 8/27/1 57/95/1 60/94/1
f 5/18/4 7/21/4 60/96/4 59/97/4
f 8/6/2 6/29/2 58/98/2 57/99/2
f 1/22/7 7/21/7 8/6/7 2/5/7
f 6/29/7 8/6/7 7/21/7 5/18/7
f 4/25/7 6/29/7 5/18/7 3/17/7
f 23/12/5 21/15/5 24/16/5 22/11/5
f 35/62/7 34/59/7 36/61/7 33/40/7
f 45/82/3 53/83/3 56/92/3 48/80/3
f 55/84/1 47/81/1 46/75/1 54/77/1
f 48/80/3 64/100/3 62/101/3 46/75/3
f 61/102/7 62/101/7 64/100/7 63/103/7
f 45/82/3 63/103/3 64/100/3 48/80/3
f 46/75/3 62/101/3 61/102/3 47/81/3
f 47/81/3 61/102/3 63/103/3 45/82/3
